HIERARCHY
ROOT Hips
{
  OFFSET 196.326 95.9168 97.7182
  CHANNELS 6 Xposition Yposition Zposition Zrotation Xrotation Yrotation
  JOINT LeftUpLeg
  {
    OFFSET 8.64259 1.95398 -2.38835
    CHANNELS 3 Zrotation Xrotation Yrotation
    JOINT LeftLeg
    {
      OFFSET 43.7702 0 0
      CHANNELS 3 Zrotation Xrotation Yrotation
      JOINT LeftFoot
      {
        OFFSET 40.6238 0 0
        CHANNELS 3 Zrotation Xrotation Yrotation
        JOINT LeftToeBase
        {
          OFFSET 12.7242 0 0
          CHANNELS 3 Zrotation Xrotation Yrotation
          End Site
          {
            OFFSET 0 0 0
          }
        }
      }
    }
  }
  JOINT RightUpLeg
  {
    OFFSET -8.2249 1.95398 -2.59336
    CHANNELS 3 Zrotation Xrotation Yrotation
    JOINT RightLeg
    {
      OFFSET 43.5653 0 0
      CHANNELS 3 Zrotation Xrotation Yrotation
      JOINT RightFoot
      {
        OFFSET 40.6238 0 0
        CHANNELS 3 Zrotation Xrotation Yrotation
        JOINT RightToeBase
        {
          OFFSET 12.7242 0 0
          CHANNELS 3 Zrotation Xrotation Yrotation
          End Site
          {
            OFFSET 0 0 0
          }
        }
      }
    }
  }
  JOINT Spine
  {
    OFFSET 0.165834 0.87714 6.61349
    CHANNELS 3 Zrotation Xrotation Yrotation
    JOINT Spine1
    {
      OFFSET 7.38963 1.71661e-005 0
      CHANNELS 3 Zrotation Xrotation Yrotation
      JOINT Spine2
      {
        OFFSET 11.9445 1.14441e-005 0
        CHANNELS 3 Zrotation Xrotation Yrotation
        JOINT Spine3
        {
          OFFSET 14.7254 4.19617e-005 0
          CHANNELS 3 Zrotation Xrotation Yrotation
          JOINT Spine4
          {
            OFFSET 10.9679 0 0
            CHANNELS 3 Zrotation Xrotation Yrotation
            JOINT RightShoulder
            {
              OFFSET 2.46616 -1.6653 3.69651
              CHANNELS 3 Zrotation Xrotation Yrotation
              JOINT RightArm
              {
                OFFSET 13.0012 0 0
                CHANNELS 3 Zrotation Xrotation Yrotation
                JOINT RightForeArm
                {
                  OFFSET 28.7848 1.52588e-005 0
                  CHANNELS 3 Zrotation Xrotation Yrotation
                  JOINT RightHand
                  {
                    OFFSET 26.5688 1.52588e-005 0
                    CHANNELS 3 Zrotation Xrotation Yrotation
                    End Site
                    {
                      OFFSET 0 0 0
                    }
                  }
                }
              }
            }
            JOINT LeftShoulder
            {
              OFFSET 2.38034 -1.29275 -3.75231
              CHANNELS 3 Zrotation Xrotation Yrotation
              JOINT LeftArm
              {
                OFFSET 16.3182 6.10351e-005 0
                CHANNELS 3 Zrotation Xrotation Yrotation
                JOINT LeftForeArm
                {
                  OFFSET 27.0901 0 0
                  CHANNELS 3 Zrotation Xrotation Yrotation
                  JOINT LeftHand
                  {
                    OFFSET 24.5451 1.52588e-005 0
                    CHANNELS 3 Zrotation Xrotation Yrotation
                    End Site
                    {
                      OFFSET 0 0 0
                    }
                  }
                }
              }
            }
            JOINT Neck
            {
              OFFSET 5.0226 -0.0266342 0
              CHANNELS 3 Zrotation Xrotation Yrotation
              JOINT Head
              {
                OFFSET 6.69363 2.86102e-005 0
                CHANNELS 3 Zrotation Xrotation Yrotation
                End Site
                {
                  OFFSET 0 0 0
                }
              }
            }
          }
        }
      }
    }
  }
}
MOTION
Frames:	9
Frame Time:	0.0416667
-40.2213 96.0887 29.1482 89.5334 25.0286 94.0588 -169.773 8.76617 89.6145 -17.6426 -14.9634 -2.10936 63.6342 7.81789 17.7233 42.6219 11.4005 -32.7168 -173.061 16.8504 95.3302 -21.0752 -17.7559 -5.79051 61.1027 -1.35754 -0.775048 43.7019 2.55633 23.4035 -1.50427 7.0719 -89.7861 12.7436 -2.8853 0.769777 1.07558 -2.8486 0.896099 -21.4853 -2.98315 -0.133733 -1.4727 -2.98311 -0.133726 84.4208 -52.2478 -108.575 24.034 -7.9797 4.62051 -5.81088 -19.6466 -29.9218 -17.2674 0.225173 -7.00332 -106.099 -40.2397 50.5147 -23.3619 9.88252 1.36304 1.25561 6.94083 -26.5861 6.1766 0.346013 1.46569 -1.84926 -33.0626 -10.2465 -7.36971 -31.6444 -7.15488 
-40.6811 96.1369 29.0111 89.8736 25.6353 93.9902 -169.904 8.6555 89.52 -17.7211 -14.7263 -2.00209 64.0674 7.27856 17.0331 42.7801 11.6273 -31.3716 -172.92 15.8882 94.9419 -21.1393 -22.1564 -6.19977 61.0956 -1.29642 -0.772001 36.1911 0.467984 19.0459 -1.58284 7.0282 -89.7558 12.833 -3.0262 0.850723 1.16523 -2.98585 0.983188 -21.3983 -3.14186 -0.0989986 -1.38562 -3.14186 -0.0990012 83.9354 -52.56 -109.187 24.0495 -7.65271 7.05346 -5.94603 -16.3361 -33.0083 -2.30326 -0.424329 4.36497 -105.692 -40.2464 51.1413 -23.3476 10.0891 0.867237 1.29377 7.42571 -27.2993 11.7081 0.933011 3.96828 -1.91377 -33.0087 -9.53789 -8.4315 -31.6101 -8.21457 
-40.942 96.1584 28.856 90.1821 27.0215 93.9425 -170.127 8.25599 89.3716 -17.3187 -14.0148 -1.80515 64.7082 7.33868 16.1325 40.6014 10.5515 -27.8575 -173.671 14.3065 94.5597 -18.4606 -23.098 -5.98187 58.7064 -0.23881 -0.117074 35.4127 0.306174 23.2075 -1.60676 6.97779 -89.7585 12.9343 -3.07424 0.855441 1.26662 -3.03362 0.990022 -21.2978 -3.18909 -0.108978 -1.28514 -3.18906 -0.108977 84.1461 -52.9086 -108.768 24.5117 -6.84626 9.26185 -5.06189 -17.5946 -28.5468 -0.309002 -0.209224 3.87774 -105.402 -40.1653 51.544 -23.5333 9.90365 0.638546 1.66111 7.15335 -28.6057 12.0475 1.01051 4.31642 -2.06475 -33.4698 -10.1163 -7.68767 -32.0739 -7.0675 
-41.2092 96.1911 28.8389 90.8071 27.2639 93.5273 -170.228 7.64729 89.1216 -17.0449 -13.5814 -1.78031 65.399 7.83861 15.863 36.3925 7.77384 -24.0823 -174.319 13.5552 94.3379 -17.8649 -22.7212 -5.72035 58.8467 -0.211384 -0.0999022 34.9323 0.152468 24.9773 -1.54651 6.99105 -89.7499 12.9069 -2.95076 0.85666 1.23897 -2.91016 0.985785 -21.3231 -3.07166 -0.0705913 -1.31047 -3.07167 -0.0705903 84.1449 -52.874 -108.781 24.8459 -5.83369 9.90989 -4.34036 -17.5108 -26.0074 0.90597 -0.125251 4.07133 -104.987 -40.1887 52.196 -24.2624 9.38667 1.01073 2.04943 6.54998 -29.8638 12.4376 0.941984 3.56149 -1.98645 -33.6563 -9.97726 -7.52323 -32.2766 -7.22023 
-41.3407 96.1338 28.8966 91.1605 27.3287 93.2624 -170.104 7.6284 89.1385 -17.5635 -13.4308 -1.90918 65.4833 7.7234 15.7285 37.1251 8.26167 -25.424 -174.205 13.198 94.2832 -17.7801 -22.5704 -5.76406 59.3637 -0.469277 -0.27531 35.2446 0.253092 23.5548 -1.48706 6.98955 -89.7335 12.9093 -2.82465 0.874214 1.24099 -2.78344 0.997763 -21.3188 -2.95672 -0.0158521 -1.30617 -2.95672 -0.0158536 84.0692 -52.7609 -108.927 25.1276 -5.54997 9.99667 -4.98958 -16.6175 -27.7319 0.347085 -0.157013 3.85106 -105.026 -40.2882 52.188 -24.6764 9.55342 1.93905 1.64446 5.80671 -29.8262 12.5046 0.900333 3.20849 -1.90383 -33.6016 -9.59361 -8.09462 -32.2179 -8.17118 
-41.4778 96.1162 29.0335 91.1976 28.3427 92.8964 -170.026 7.67846 88.9847 -17.6033 -13.0692 -2.09705 65.4347 7.82205 15.4562 37.2898 8.29393 -27.8551 -173.909 13.7826 94.0616 -19.5671 -21.2542 -6.00221 62.389 -1.75965 -1.05996 37.7436 0.879622 19.9542 -1.49858 6.96923 -89.7022 12.9507 -2.83225 0.939391 1.28242 -2.78817 1.06321 -21.2775 -2.98354 0.0440208 -1.26482 -2.98353 0.0440196 84.7114 -52.2554 -108.145 25.5014 -6.19821 9.12634 -6.28483 -16.1883 -31.7371 -0.311815 -0.199029 3.85746 -105.132 -40.2571 52.009 -25.413 9.50403 2.5429 1.4169 6.38033 -27.8653 12.212 0.893261 3.302 -2.40481 -33.9037 -10.1309 -7.53341 -32.5522 -7.87819 
-41.3291 96.0673 29.1445 91.4938 29.8627 92.5179 -170.069 7.64038 89.0311 -17.927 -11.1674 -2.15221 64.4442 7.60055 16.8795 40.1773 10.0177 -30.9695 -173.714 13.8842 93.9809 -20.9533 -21.5824 -6.10009 62.5186 -1.89949 -1.13524 36.9132 0.65394 20.6998 -1.52751 6.97921 -89.7052 12.9312 -2.89148 0.939686 1.263 -2.8473 1.06611 -21.2979 -3.04007 0.0264606 -1.2853 -3.0401 0.0264529 84.6495 -52.0164 -108.311 25.3635 -6.68517 7.8259 -7.44942 -15.5194 -36.0114 -1.64119 -0.2761 4.39988 -105.301 -40.2932 51.768 -26.2268 9.45031 3.17627 0.867048 6.52162 -25.3412 11.4427 0.810862 3.06475 -2.06113 -34.1673 -9.85739 -8.00277 -32.7766 -8.37951 
-40.9021 96.0198 29.1973 91.3191 31.2132 92.2994 -170.212 7.60281 88.9694 -17.8709 -10.4784 -2.0962 63.9243 7.25657 16.9328 42.8894 11.5547 -32.8146 -173.858 13.9043 93.8621 -20.7948 -20.2042 -5.9646 60.6249 -1.22931 -0.727809 36.2344 0.539786 25.8366 -1.48335 6.93881 -89.7072 13.0113 -2.80376 0.928199 1.3429 -2.7602 1.05077 -21.2165 -2.95302 0.0419225 -1.20384 -2.953 0.0419283 84.7753 -52.2474 -108.054 24.3627 -7.71041 5.58536 -7.83207 -15.5631 -38.0067 -2.99231 -0.352966 2.94807 -105.2 -40.2721 51.911 -27.077 9.36021 4.17953 0.427254 5.9514 -24.0252 10.8967 0.811021 3.36931 -2.07331 -34.7103 -10.4339 -7.56683 -33.2852 -7.72464 
-40.4192 96.1222 29.262 91.1958 32.4978 92.123 -170.472 7.08653 88.8825 -16.9373 -9.35843 -1.93469 63.4847 7.484 17.2736 42.427 11.2958 -32.5593 -174.597 13.1679 93.7718 -19.8602 -19.3979 -5.81368 60.7356 -1.0884 -0.633837 35.8899 0.428599 26.3282 -1.46261 6.9165 -89.7426 13.0549 -2.77971 0.85611 1.3866 -2.73932 0.977689 -21.1724 -2.90841 -0.0195782 -1.15977 -2.90838 -0.0195748 85.0675 -51.9339 -107.72 23.6561 -8.54061 3.07509 -8.25814 -15.6363 -39.4972 -3.24408 -0.37093 3.03714 -104.89 -40.2846 52.3954 -28.4792 8.94938 5.76001 0.709286 5.68761 -24.5132 11.2459 0.861119 3.58734 -1.92886 -34.9529 -10.685 -7.34672 -33.4963 -7.39432 
